<svg width="20" height="21" viewBox="0 0 20 21" fill="none" xmlns="http://www.w3.org/2000/svg">
<path d="M3.66675 9.5L9.16675 0.5L14.6667 9.5H3.66675ZM14.6667 20.5C13.4167 20.5 12.3542 20.0625 11.4792 19.1875C10.6042 18.3125 10.1667 17.25 10.1667 16C10.1667 14.75 10.6042 13.6875 11.4792 12.8125C12.3542 11.9375 13.4167 11.5 14.6667 11.5C15.9167 11.5 16.9792 11.9375 17.8542 12.8125C18.7292 13.6875 19.1667 14.75 19.1667 16C19.1667 17.25 18.7292 18.3125 17.8542 19.1875C16.9792 20.0625 15.9167 20.5 14.6667 20.5ZM0.166748 20V12H8.16675V20H0.166748ZM14.6667 18.5C15.3667 18.5 15.9584 18.2583 16.4417 17.775C16.9251 17.2917 17.1667 16.7 17.1667 16C17.1667 15.3 16.9251 14.7083 16.4417 14.225C15.9584 13.7417 15.3667 13.5 14.6667 13.5C13.9667 13.5 13.3751 13.7417 12.8917 14.225C12.4084 14.7083 12.1667 15.3 12.1667 16C12.1667 16.7 12.4084 17.2917 12.8917 17.775C13.3751 18.2583 13.9667 18.5 14.6667 18.5ZM2.16675 18H6.16675V14H2.16675V18ZM7.21675 7.5H11.1167L9.16675 4.35L7.21675 7.5Z" fill="#7D7D7D"/>
</svg>
