<svg width="24" height="24" viewBox="0 0 24 24" fill="none" xmlns="http://www.w3.org/2000/svg">
<path d="M20.7515 15.8223C19.5147 15.0134 16.979 14.1363 13.5001 16.87V14.293C15.5345 14.2499 17.0161 12.9224 17.7196 10.8862C18.4475 8.77341 17.5374 4.55728 16.9299 2.23228C16.8814 2.05431 16.7902 1.8909 16.6641 1.75626C16.538 1.62162 16.3809 1.51985 16.2065 1.45981C16.0321 1.39976 15.8457 1.38327 15.6635 1.41176C15.4812 1.44025 15.3087 1.51287 15.161 1.62328C14.7142 1.96443 14.2737 2.31387 13.8399 2.6714C13.3276 2.01478 13.01 0.769404 12.0001 0.748779C10.9756 0.801279 10.7697 1.85728 10.1581 2.67103C9.72442 2.31296 9.28396 1.96314 8.83699 1.62178C8.68904 1.51189 8.51649 1.4398 8.33434 1.41177C8.15219 1.38374 7.96594 1.40061 7.7918 1.46093C7.61765 1.52124 7.46087 1.62318 7.33508 1.75786C7.20928 1.89255 7.11829 2.05592 7.06999 2.23378C6.46249 4.55878 5.55199 8.7749 6.27949 10.8847C6.98337 12.922 8.46499 14.251 10.5001 14.2942V16.8704C7.02012 14.1359 4.48512 15.0138 3.24762 15.823C3.10484 15.9186 2.99905 16.0601 2.94782 16.2241C2.89659 16.3881 2.903 16.5646 2.96598 16.7245C3.02897 16.8843 3.14474 17.0178 3.29407 17.1027C3.4434 17.1876 3.61729 17.219 3.78687 17.1914C7.85712 16.4564 10.1491 20.1134 10.5001 20.7224V21.7499C10.5001 22.1477 10.6582 22.5293 10.9395 22.8106C11.2208 23.0919 11.6023 23.2499 12.0001 23.2499C12.3979 23.2499 12.7795 23.0919 13.0608 22.8106C13.3421 22.5293 13.5001 22.1477 13.5001 21.7499V20.7224C13.8504 20.113 16.1382 16.4568 20.2152 17.1918C20.3849 17.2189 20.5587 17.1872 20.7078 17.102C20.8569 17.0167 20.9724 16.883 21.035 16.723C21.0976 16.5631 21.1037 16.3865 21.0521 16.2227C21.0005 16.0588 20.8944 15.9175 20.7515 15.8223ZM15.6159 2.21953C15.6649 2.18265 15.7223 2.15837 15.7829 2.14881C15.8435 2.13925 15.9056 2.1447 15.9636 2.16468C16.0217 2.18467 16.0739 2.21858 16.1158 2.26345C16.1577 2.30831 16.1879 2.36276 16.2039 2.42203C16.676 4.22765 17.6986 8.64365 17.0105 10.642C15.3867 15.8215 8.00787 13.4545 9.91924 8.20041C10.6077 6.20053 14.1331 3.35165 15.6159 2.21953ZM11.6896 1.66603C11.725 1.61671 11.7715 1.57653 11.8255 1.54881C11.8795 1.52109 11.9393 1.50663 11.9999 1.50663C12.0606 1.50663 12.1204 1.52109 12.1744 1.54881C12.2283 1.57653 12.2749 1.61671 12.3102 1.66603C12.6472 2.17353 12.9637 2.67128 13.2597 3.15928C12.8293 3.52749 12.4088 3.90713 11.9986 4.29778C11.5888 3.90759 11.1687 3.52821 10.739 3.16003C11.0455 2.65546 11.3622 2.15735 11.6896 1.66603ZM9.03237 13.1924C5.34799 11.3099 7.09849 5.4374 7.79599 2.42353C7.81191 2.36433 7.84204 2.30991 7.88376 2.265C7.92549 2.22009 7.97755 2.18605 8.03543 2.16583C8.0933 2.14562 8.15524 2.13984 8.21585 2.149C8.27647 2.15816 8.33393 2.18199 8.38324 2.2184C9.45419 3.03368 10.4824 3.90358 11.4639 4.82465C10.4259 5.87915 9.54499 6.98578 9.21087 7.95628C8.40312 10.3023 9.06312 12.4154 10.8447 13.5348C10.2208 13.5867 9.59439 13.4684 9.03237 13.1924ZM3.65899 16.45C5.02212 15.5579 7.31149 15.0925 10.5001 17.845V19.4144C9.41412 18.0344 7.09249 15.8309 3.65899 16.45ZM12.0001 22.4999C11.8013 22.4997 11.6106 22.4206 11.47 22.28C11.3294 22.1394 11.2503 21.9488 11.2501 21.7499V14.2432C11.5049 14.2043 11.7561 14.1453 12.0016 14.0669C12.2461 14.1449 12.4964 14.2036 12.7501 14.2424V21.7499C12.7499 21.9488 12.6708 22.1394 12.5302 22.28C12.3896 22.4206 12.199 22.4997 12.0001 22.4999ZM13.5001 19.4144V17.845C16.6887 15.0929 18.9777 15.5587 20.3469 16.4534C16.9081 15.832 14.5861 18.0344 13.5001 19.4144Z" fill="#D21E6A"/>
</svg>
