<svg width="48" height="48" viewBox="0 0 48 48" fill="none" xmlns="http://www.w3.org/2000/svg">
<g clip-path="url(#clip0_196_2158)">
<path d="M8.63869 40.3618L16.781 42.1357C16.997 42.1828 17.2228 42.1421 17.4087 42.0227C17.5947 41.9033 17.7256 41.7148 17.7727 41.4989C17.8197 41.2829 17.779 41.0572 17.6596 40.8712C17.5402 40.6852 17.3518 40.5543 17.1358 40.5073L8.99348 38.7333C8.77753 38.6863 8.55173 38.727 8.36577 38.8464C8.1798 38.9658 8.0489 39.1542 8.00185 39.3702C7.9548 39.5861 7.99547 39.8119 8.1149 39.9979C8.23433 40.1839 8.42274 40.3148 8.63869 40.3618ZM30.623 45.1514L37.9511 46.748C38.167 46.795 38.3928 46.7543 38.5788 46.6349C38.7648 46.5155 38.8957 46.3271 38.9427 46.1111C38.9898 45.8952 38.9491 45.6694 38.8297 45.4834C38.7102 45.2974 38.5218 45.1665 38.3059 45.1195L30.9778 43.5229C30.7618 43.4759 30.536 43.5166 30.3501 43.636C30.1641 43.7554 30.0332 43.9438 29.9862 44.1598C29.9391 44.3757 29.9798 44.6015 30.0992 44.7875C30.2186 44.9735 30.407 45.1044 30.623 45.1514ZM20.038 42.8453L21.6664 43.2001C21.8824 43.2471 22.1082 43.2065 22.2941 43.087C22.4801 42.9676 22.611 42.7792 22.6581 42.5633C22.7051 42.3473 22.6644 42.1215 22.545 41.9355C22.4256 41.7496 22.2372 41.6187 22.0212 41.5716L20.3927 41.2168C20.1768 41.1698 19.951 41.2105 19.765 41.3299C19.5791 41.4493 19.4482 41.6377 19.4011 41.8537C19.3541 42.0696 19.3947 42.2954 19.5142 42.4814C19.6336 42.6674 19.822 42.7983 20.038 42.8453Z" fill="#747575"/>
<path d="M26.0285 27.0928L25.1415 31.164L31.6554 32.5831C32.7352 32.8184 33.6772 33.4729 34.2744 34.4027C34.8715 35.3326 35.0749 36.4615 34.8396 37.5413L34.13 40.7982L39.8297 42.0399L40.5393 38.783C41.1038 36.1916 40.6159 33.4821 39.1827 31.2505C37.7495 29.0189 35.4885 27.4481 32.8972 26.8835L28.0118 25.8191C27.5799 25.725 27.1283 25.8064 26.7564 26.0452C26.3844 26.2841 26.1226 26.6609 26.0285 27.0928Z" fill="#C4455E"/>
<path d="M28.0116 25.8194L32.897 26.8837C34.756 27.2898 36.4606 28.2178 37.8106 29.5589C39.1606 30.8999 40.1 32.5983 40.5184 34.4546C37.9036 29.9361 34.0421 29.6919 29.1079 28.6169C28.676 28.5228 28.2244 28.6041 27.8525 28.843C27.4805 29.0818 27.2187 29.4586 27.1246 29.8905L26.7698 31.519L25.1414 31.1642L26.0283 27.0931C26.1224 26.6612 26.3842 26.2843 26.7562 26.0455C27.1281 25.8066 27.5797 25.7253 28.0116 25.8194ZM12.291 27.5117L13.774 36.3636L23.5448 38.4923L24.2544 35.2354L18.97 34.0841C18.5608 33.9965 18.1994 33.7581 17.9579 33.4163C17.7163 33.0745 17.6122 32.6543 17.6662 32.2393C20.0391 14.8884 19.7894 16.5824 19.8373 16.3626L16.403 16.4672C15.9882 17.5879 16.6596 15.7982 12.291 27.5117Z" fill="#D21E6A"/>
<path d="M12.2911 27.5116C13.5099 34.7963 13.5589 34.6108 13.4775 34.5931C13.6579 34.6317 13.845 34.6257 14.0225 34.5757C14.2001 34.5256 14.3627 34.4329 14.4963 34.3057C14.63 34.1785 14.7305 34.0206 14.7892 33.8457C14.848 33.6708 14.8631 33.4842 14.8333 33.3021L13.9195 27.8663C18.2881 16.1528 17.6203 17.9263 18.0315 16.8219C20.0921 16.7591 19.7574 16.925 19.8374 16.3624L16.403 16.4671C15.9883 17.5878 16.6597 15.798 12.2911 27.5116Z" fill="#F26674"/>
<path d="M14.3878 10.0579L13.3234 14.9433C13.2764 15.1592 13.3171 15.385 13.4365 15.571C13.5559 15.757 13.7443 15.8879 13.9603 15.9349L18.0314 16.8219C18.8952 17.0101 19.7984 16.8474 20.5423 16.3697C21.2861 15.892 21.8098 15.1383 21.9979 14.2745C22.1861 13.4107 22.0235 12.5075 21.5458 11.7637C21.068 11.0198 20.3144 10.4962 19.4506 10.308L15.3794 9.42104C15.1635 9.37399 14.9377 9.41466 14.7517 9.53409C14.5657 9.65352 14.4348 9.84193 14.3878 10.0579Z" fill="#D21E6A"/>
<path d="M16.1117 17.2564C17.7402 17.6112 18.5766 17.9214 19.6804 17.5137C19.8801 15.9708 19.9694 17.244 18.0316 16.8218L16.4031 16.467L16.1117 17.2564Z" fill="#C4455E"/>
<path d="M11.4131 11.9686C11.2719 12.6165 11.3939 13.2939 11.7522 13.8517C12.1105 14.4096 12.6757 14.8024 13.3236 14.9435L14.3879 10.0581C13.7401 9.91696 13.0627 10.039 12.5048 10.3972C11.9469 10.7555 11.5542 11.3208 11.4131 11.9686Z" fill="#FFCC66"/>
<path d="M11.4946 13.3165C11.8262 13.6335 12.2386 13.8532 12.6867 13.9515L13.5417 10.0269C13.1738 10.074 12.821 10.2025 12.5089 10.4029C12.1968 10.6033 11.9332 10.8707 11.7372 11.1856C11.5412 11.5006 11.4177 11.8552 11.3758 12.2237C11.3338 12.5923 11.3744 12.9655 11.4946 13.3165Z" fill="#FFDE76"/>
<path d="M20.1922 14.7339L25.0776 15.7982C25.2935 15.8453 25.5193 15.8046 25.7053 15.6852C25.8912 15.5658 26.0221 15.3773 26.0692 15.1614C26.1162 14.9455 26.0756 14.7197 25.9561 14.5337C25.8367 14.3477 25.6483 14.2168 25.4323 14.1698L20.5469 13.1054C20.331 13.0584 20.1052 13.099 19.9192 13.2185C19.7333 13.3379 19.6024 13.5263 19.5553 13.7423C19.5083 13.9582 19.5489 14.184 19.6684 14.37C19.7878 14.5559 19.9762 14.6868 20.1922 14.7339Z" fill="#374F68"/>
<path d="M2.37485 33.8798L13.7741 36.3633C12.151 26.6279 12.4051 27.5362 12.0224 27.4528C9.89465 27.0623 7.69841 27.5146 5.89802 28.7139C4.09763 29.9133 2.8342 31.7658 2.37485 33.8798Z" fill="#C4455E"/>
<path d="M2.89255 32.2869L13.4776 34.593L12.2912 27.5114C10.4142 27.1021 8.45345 27.3539 6.74076 28.2241C5.02807 29.0943 3.66864 30.5295 2.89255 32.2869Z" fill="#D21E6A"/>
<path d="M26.802 39.2019C26.5197 40.4975 26.7637 41.8523 27.4802 42.9681C28.1968 44.0839 29.3273 44.8693 30.623 45.1516C31.9187 45.4339 33.2734 45.1899 34.3892 44.4733C35.505 43.7567 36.2905 42.6263 36.5728 41.3306L26.802 39.2019ZM4.71354 35.2424C4.4313 40.8441 12.266 42.5425 14.3378 37.3392L4.71354 35.2424Z" fill="#374F68"/>
<path d="M30.0587 39.9115C29.9646 40.3434 30.046 40.795 30.2848 41.1669C30.5237 41.5389 30.9005 41.8007 31.3324 41.8948C31.7643 41.9889 32.2159 41.9075 32.5878 41.6687C32.9598 41.4298 33.2216 41.053 33.3157 40.6211L30.0587 39.9115ZM8.11689 35.984C8.20627 36.262 8.36711 36.5116 8.58331 36.7079C8.7995 36.9041 9.06345 37.0401 9.34875 37.1023C9.63404 37.1644 9.93065 37.1505 10.2089 37.062C10.4871 36.9735 10.7372 36.8134 10.9341 36.5978L8.11689 35.984Z" fill="#7C7D7D"/>
<path d="M44.7966 19.2417L33.3974 16.7582L31.2686 26.529L42.6679 29.0125L44.7966 19.2417Z" fill="#A87E6B"/>
<path d="M33.3972 16.7578L31.6233 24.9001L36.5087 25.9645C37.3725 26.1527 38.2757 25.99 39.0195 25.5123C39.7634 25.0346 40.287 24.2809 40.4752 23.4171L41.5396 18.5317L33.3972 16.7578Z" fill="#BE927C"/>
<path d="M26.3833 25.4646L31.2687 26.529L31.9783 23.272C30.4231 22.9332 28.6705 22.287 27.1778 23.9319C26.7829 24.3642 26.5089 24.8928 26.3833 25.4646Z" fill="#2C435E"/>
<path d="M27.1778 23.9319L31.6235 24.9005L31.9783 23.272C30.4231 22.9332 28.6705 22.287 27.1778 23.9319Z" fill="#374F68"/>
<path d="M37.4684 17.6449L36.4041 22.5303L38.2099 22.0709L39.661 23.2399L40.7253 18.3545L37.4684 17.6449Z" fill="#F6CCAF"/>
<path d="M14.3879 10.0578L13.5009 14.129L14.3151 14.3064C15.6108 14.5887 16.9656 14.3447 18.0814 13.6281C19.1972 12.9115 19.9826 11.781 20.2649 10.4854L15.3795 9.42099C15.1635 9.37395 14.9377 9.41461 14.7518 9.53404C14.5658 9.65347 14.4349 9.84189 14.3879 10.0578Z" fill="#F26674"/>
<path d="M20.0875 11.2995C20.6982 11.4325 20.5966 11.3507 24.1728 7.54133C24.3077 7.38345 24.3787 7.1809 24.372 6.97338C24.3654 6.76585 24.2815 6.56828 24.1368 6.41937C23.9921 6.27046 23.797 6.18094 23.5897 6.16833C23.3825 6.15572 23.178 6.22093 23.0163 6.3512L19.6866 9.89019C19.5793 9.99508 19.5023 10.127 19.4637 10.272C19.4252 10.4171 19.4265 10.5698 19.4675 10.7142C19.5086 10.8585 19.5879 10.9891 19.697 11.0921C19.8061 11.1951 19.941 11.2668 20.0875 11.2995Z" fill="#374F68"/>
<path d="M24.2313 7.93808L26.674 8.47026L27.3836 5.21332L24.9409 4.68115C24.509 4.58705 24.0574 4.66838 23.6855 4.90724C23.3136 5.1461 23.0518 5.52293 22.9577 5.95483C22.8636 6.38672 22.9449 6.83831 23.1838 7.21024C23.4226 7.58217 23.7994 7.84398 24.2313 7.93808ZM25.1414 31.1641L23.5448 38.4922L34.1299 40.7983L34.8394 37.5414C35.0747 36.4617 34.8714 35.3327 34.2742 34.4029C33.677 33.473 32.735 32.8185 31.6552 32.5833L25.1414 31.1641Z" fill="#D21E6A"/>
<path d="M31.6554 32.5832C32.3851 32.7472 33.0571 33.1045 33.6011 33.6177C34.1451 34.1308 34.5409 34.781 34.7471 35.4998C33.6857 34.5778 33.5154 34.6942 26.4152 33.1473L25.1735 38.8469L23.545 38.4922L25.1416 31.164L31.6554 32.5832Z" fill="#F26674"/>
<path d="M37.4684 17.6451L36.7589 20.902L37.5731 21.0794C38.005 21.1735 38.4566 21.0922 38.8285 20.8533C39.2004 20.6144 39.4623 20.2376 39.5563 19.8057L39.9111 18.1772L37.4684 17.6451Z" fill="#FFDEC7"/>
<path d="M8.07437 35.1215C8.01256 35.4076 8.0272 35.7049 8.11682 35.9836L10.9341 36.5974C11.1315 36.3813 11.2685 36.117 11.3313 35.8311L8.07437 35.1215Z" fill="#747575"/>
<path d="M11.3314 35.8314C11.2686 36.1173 11.1316 36.3816 10.9342 36.5978L14.3377 37.3393C14.4455 37.0814 14.5295 36.8142 14.5884 36.541L11.3314 35.8314ZM4.81757 34.4123C4.75748 34.6853 4.72263 34.9632 4.71345 35.2425L8.11695 35.984C8.02734 35.7053 8.0127 35.408 8.0745 35.1219L4.81757 34.4123Z" fill="#2C435E"/>
<path d="M30.0587 39.9115C29.9969 40.1976 30.0116 40.495 30.1012 40.7737L32.9184 41.3874C33.1158 41.1713 33.2529 40.907 33.3157 40.6211L30.0587 39.9115Z" fill="#747575"/>
<path d="M33.3158 40.621C33.253 40.9069 33.116 41.1712 32.9186 41.3873L36.3221 42.1288C36.4299 41.871 36.5138 41.6038 36.5727 41.3306L33.3158 40.621ZM26.8019 39.2018C26.7419 39.4748 26.707 39.7527 26.6978 40.032L30.1013 40.7735C30.0117 40.4949 29.9971 40.1975 30.0589 39.9114L26.8019 39.2018Z" fill="#2C435E"/>
</g>
<defs>
<clipPath id="clip0_196_2158">
<rect width="40" height="40" fill="white" transform="matrix(-0.97708 -0.212871 -0.212871 0.97708 47.917 8.83398)"/>
</clipPath>
</defs>
</svg>
