<svg width="21" height="21" viewBox="0 0 21 21" fill="none" xmlns="http://www.w3.org/2000/svg">
<path d="M6.33301 20.5C5.78301 20.5 5.31217 20.3042 4.92051 19.9125C4.52884 19.5208 4.33301 19.05 4.33301 18.5C4.33301 17.95 4.52884 17.4792 4.92051 17.0875C5.31217 16.6958 5.78301 16.5 6.33301 16.5C6.88301 16.5 7.35384 16.6958 7.74551 17.0875C8.13717 17.4792 8.33301 17.95 8.33301 18.5C8.33301 19.05 8.13717 19.5208 7.74551 19.9125C7.35384 20.3042 6.88301 20.5 6.33301 20.5ZM16.333 20.5C15.783 20.5 15.3122 20.3042 14.9205 19.9125C14.5288 19.5208 14.333 19.05 14.333 18.5C14.333 17.95 14.5288 17.4792 14.9205 17.0875C15.3122 16.6958 15.783 16.5 16.333 16.5C16.883 16.5 17.3538 16.6958 17.7455 17.0875C18.1372 17.4792 18.333 17.95 18.333 18.5C18.333 19.05 18.1372 19.5208 17.7455 19.9125C17.3538 20.3042 16.883 20.5 16.333 20.5ZM5.48301 4.5L7.88301 9.5H14.883L17.633 4.5H5.48301ZM4.53301 2.5H19.283C19.6663 2.5 19.958 2.67083 20.158 3.0125C20.358 3.35417 20.3663 3.7 20.183 4.05L16.633 10.45C16.4497 10.7833 16.2038 11.0417 15.8955 11.225C15.5872 11.4083 15.2497 11.5 14.883 11.5H7.43301L6.33301 13.5H18.333V15.5H6.33301C5.58301 15.5 5.01634 15.1708 4.63301 14.5125C4.24967 13.8542 4.23301 13.2 4.58301 12.55L5.93301 10.1L2.33301 2.5H0.333008V0.5H3.58301L4.53301 2.5Z" fill="#D21E6A"/>
</svg>
